# xmcd
# Copyright (C) 1995-1998 Ti Kan
#
# Track frame offsets:
#       150
#       9457
#       19602
#       31072
#       41049
#       47913
#       56691
#       66875
#       76409
#       89385
#       103427
#       116442
#       125941
#       139623
#       151351
#       171278
#       185733
#       198321
#       211460
#       226501
#       237303
#       246843
#       257537
#       268411
#       278225
#       287683
#       297503
#       308698
#       320710
#       330994
#
# Disc length: 4554 seconds
#
# Revision: 0
# Processed by: cddbd v1.5.2PL0 Copyright (c) Steve Scherf et al.
# Submitted via: CD-Import v1.0
#
DISCID=bf11c81e
DTITLE=Elvis Presley - At The Movies
DYEAR=1900
DGENRE=
TTITLE0=A Little Less Conversation
TTITLE1=Rubberneckin'
TTITLE2=Gonna Get Back Home Somehow
TTITLE3=Night Rider
TTITLE4=Long Legged Girl (With The Short Dress On)
TTITLE5=Steppin' Out Of Line
TTITLE6=Kissin' Cousins
TTITLE7=Guitar Man
TTITLE8=Burning Love
TTITLE9=What'd I Say
TTITLE10=The Love Machine
TTITLE11=I'll Be Back
TTITLE12=Let Yourself Go
TTITLE13=Power Of My Love
TTITLE14=Stranger In My Home Town
TTITLE15=Clean Up Your Own Back Yard
TTITLE16=Wearin' That Loved On Look
TTITLE17=I'm Movin' On
TTITLE18=Do The Clam
TTITLE19=Viva Las Vegas
TTITLE20=Shake That Tambourine
TTITLE21=Stuck On You
TTITLE22=(You're The) Devil In Disguise
TTITLE23=His Latest Flame
TTITLE24=Bossa Nova Baby
TTITLE25=King Of The Whole Wide World
TTITLE26=Flaming Star
TTITLE27=Clambake
TTITLE28=I Gotta Know
TTITLE29=Little Egypt
EXTD=
EXTT0=
EXTT1=
EXTT2=
EXTT3=
EXTT4=
EXTT5=
EXTT6=
EXTT7=
EXTT8=
EXTT9=
EXTT10=
EXTT11=
EXTT12=
EXTT13=
EXTT14=
EXTT15=
EXTT16=
EXTT17=
EXTT18=
EXTT19=
EXTT20=
EXTT21=
EXTT22=
EXTT23=
EXTT24=
EXTT25=
EXTT26=
EXTT27=
EXTT28=
EXTT29=
PLAYORDER=
